<svg width="150" height="169" viewBox="0 0 150 169" fill="none" xmlns="http://www.w3.org/2000/svg">
<path d="M74.6061 38.2387C70.8861 29.2387 67.7661 17.2387 74.8461 8.23871C81.2761 0.0487099 94.2761 -2.24129 105.246 2.29871C100.126 5.29871 97.3461 15.9287 92.1261 22.2987C82.2061 34.4787 76.3661 34.4687 74.6061 38.2387Z" fill="#5B8F31"/>
<path d="M87.2161 8.99871C83.9261 11.6987 78.5461 16.0987 76.4361 23.3187C75.0417 28.1138 74.404 33.097 74.5461 38.0887L74.6061 38.2387C76.3661 34.4687 82.2061 34.4787 92.1261 22.3287C97.3461 15.9287 100.126 5.32871 105.246 2.32871L105.086 2.26871C98.3061 1.43871 90.3161 6.42871 87.2161 8.99871Z" fill="#55862D"/>
<path d="M76.4361 23.3187C78.5461 16.0987 83.9261 11.6987 87.2161 8.99871C90.3161 6.44871 98.3061 1.45871 105.086 2.25871C94.1461 -2.22129 81.2461 0.0887117 74.8461 8.24871C67.8461 17.2487 70.8461 29.1587 74.5461 38.0887C74.404 33.097 75.0417 28.1138 76.4361 23.3187Z" fill="#5C9E33"/>
<path d="M74.7661 42.2387C74.1829 38.2174 74.109 34.1385 74.5461 30.0987C75.0048 26.016 76.2476 22.0602 78.2061 18.4487C80.2408 14.8839 82.9838 11.7733 86.2661 9.30871C89.5291 6.88126 93.1177 4.92539 96.9261 3.49871C96.0361 3.97871 95.1461 4.49871 94.2461 4.90871C93.3461 5.31871 92.5162 5.90871 91.6462 6.43871C91.2162 6.69871 90.7761 6.93871 90.3561 7.21871L89.1261 8.08871L87.9061 8.99871C87.5061 9.29871 87.1361 9.63871 86.7461 9.99871C83.6286 12.4742 81.0205 15.5306 79.0661 18.9987C77.1418 22.4722 75.8675 26.2677 75.3061 30.1987C75.1561 31.1987 75.0561 32.1987 74.9361 33.1987L74.7561 36.1987V39.1987C74.7361 40.2187 74.7561 41.2187 74.7661 42.2387Z" fill="#2C602C"/>
<path d="M74.7861 19.2187C74.7818 20.3464 74.9093 21.4707 75.1661 22.5687C75.3871 23.6528 75.6982 24.7165 76.0961 25.7487L75.6361 25.5587C76.3181 25.3146 77.0211 25.1339 77.7361 25.0187C78.4261 24.8887 79.1361 24.8087 79.8361 24.7287C80.5361 24.6487 81.2461 24.6387 81.9461 24.6287C82.6435 24.6127 83.3406 24.6697 84.0261 24.7987C83.3566 24.8327 82.6892 24.8995 82.0261 24.9987C81.3361 25.0887 80.6561 25.2087 79.9661 25.3287C79.2761 25.4487 78.5961 25.5787 77.9661 25.7087C77.2885 25.8278 76.6201 25.9949 75.9661 26.2087L75.6361 26.3187L75.5061 26.0187C75.2829 25.4728 75.1121 24.907 74.9961 24.3287C74.8769 23.7637 74.7868 23.193 74.7261 22.6187C74.653 22.0484 74.6196 21.4737 74.6261 20.8987C74.6065 20.3341 74.6603 19.7694 74.7861 19.2187Z" fill="#2C602C"/>
<path d="M78.5961 11.6387C78.6523 12.5439 78.7963 13.4414 79.0261 14.3187C79.2274 15.1644 79.5651 15.9717 80.0261 16.7087L79.6561 16.5587C81.2004 16.2866 82.7731 16.2126 84.3361 16.3387C85.8861 16.4293 87.4217 16.6874 88.9161 17.1087C87.3661 17.0087 85.8361 16.9687 84.3161 16.9687C82.8038 16.9471 81.2923 17.0474 79.7961 17.2687H79.5561L79.4261 17.0787C78.9025 16.2611 78.5614 15.3402 78.4261 14.3787C78.3216 13.4625 78.3792 12.535 78.5961 11.6387Z" fill="#2C602C"/>
<path d="M83.7561 5.67871C83.5713 7.50807 83.9186 9.35188 84.7561 10.9887L84.3761 10.8087C85.9258 10.5509 87.5025 10.4972 89.0661 10.6487C89.8415 10.7071 90.6128 10.8106 91.3761 10.9587C92.1391 11.1104 92.8859 11.3348 93.6061 11.6287C92.0916 11.3874 90.5598 11.2704 89.0261 11.2787C87.5121 11.2326 85.9968 11.3129 84.4961 11.5187H84.2261L84.1161 11.2987C83.6827 10.4338 83.4274 9.49069 83.3656 8.52526C83.3038 7.55983 83.4366 6.59181 83.7561 5.67871Z" fill="#2C602C"/>
<path d="M91.2661 2.93871C91.1661 3.56871 91.0761 4.18871 91.0261 4.80871C90.9675 5.40365 91.0013 6.00408 91.1261 6.58871L90.8261 6.41871C91.7718 6.1927 92.7453 6.10512 93.7161 6.15871C94.6778 6.20824 95.6258 6.4073 96.5261 6.74871C95.5916 6.62428 94.6486 6.57412 93.7061 6.59871C92.7785 6.61647 91.8546 6.72025 90.9461 6.90871H90.6961V6.67871C90.5461 6.02049 90.5461 5.33694 90.6961 4.67871C90.8167 4.07823 91.008 3.49415 91.2661 2.93871Z" fill="#2C602C"/>
<path d="M100.226 27.8287C94.5319 27.834 88.9939 29.6914 84.448 33.1207C79.9021 36.5499 76.5951 41.3649 75.0261 46.8387C73.3002 40.7343 69.4213 35.4618 64.1074 31.9971C58.7934 28.5324 52.4042 27.11 46.1223 27.9933C39.8404 28.8766 34.0912 32.0057 29.9387 36.8015C25.7862 41.5973 23.5117 47.7351 23.5361 54.0787C23.5361 77.5687 44.0761 95.2287 59.2061 105.079C58.5661 103.169 57.3861 100.579 56.8061 98.9587C54.1061 91.4287 53.1761 86.8887 53.4461 81.5287L53.6761 54.3687C53.6761 54.2287 53.7039 54.09 53.7578 53.9607C53.8117 53.8315 53.8906 53.7142 53.9901 53.6156C54.0896 53.5171 54.2077 53.4392 54.3374 53.3865C54.4672 53.3338 54.6061 53.3074 54.7461 53.3087C55.0326 53.3087 55.3073 53.4225 55.5098 53.625C55.7124 53.8276 55.8261 54.1023 55.8261 54.3887L56.4261 81.8987C57.1597 82.1496 57.9596 82.1247 58.6761 81.8287L59.1961 54.3487C59.2219 54.0815 59.3464 53.8335 59.5451 53.653C59.7438 53.4725 60.0027 53.3725 60.2711 53.3725C60.5396 53.3725 60.7985 53.4725 60.9972 53.653C61.1959 53.8335 61.3203 54.0815 61.3461 54.3487L61.7261 81.8187C62.5868 82.103 63.5192 82.0818 64.3661 81.7587L64.7061 54.3487C64.7319 54.0815 64.8563 53.8335 65.0551 53.653C65.2538 53.4725 65.5127 53.3725 65.7811 53.3725C66.0496 53.3725 66.3084 53.4725 66.5072 53.653C66.7059 53.8335 66.8303 54.0815 66.8561 54.3487L67.3361 81.7287C68.0891 81.9172 68.8744 81.9377 69.6361 81.7887L70.2161 54.3587C70.2161 54.0723 70.3299 53.7976 70.5325 53.595C70.735 53.3925 71.0097 53.2787 71.2961 53.2787C71.4362 53.2774 71.5751 53.3038 71.7049 53.3565C71.8346 53.4092 71.9527 53.4871 72.0522 53.5856C72.1516 53.6842 72.2306 53.8015 72.2845 53.9307C72.3384 54.06 72.3662 54.1987 72.3661 54.3387L72.6061 82.2687C72.8361 89.4987 72.8461 93.1987 70.2761 98.3587C69.0461 100.829 66.8561 105.659 66.8561 106.929V109.669C71.7461 112.409 75.0161 113.839 75.0161 113.839C75.0161 113.839 78.4161 112.439 83.4661 109.709C80.6961 105.359 76.2761 101.709 77.0961 91.7087C78.7761 70.9987 81.0961 53.9487 88.2161 52.7087C88.3453 52.6854 88.478 52.6906 88.605 52.7239C88.7319 52.7573 88.85 52.8181 88.951 52.9019C89.052 52.9857 89.1335 53.0907 89.1896 53.2093C89.2458 53.328 89.2753 53.4574 89.2761 53.5887V106.339C104.516 97.0487 126.476 79.2787 126.476 54.0487C126.471 47.0912 123.703 40.4205 118.78 35.5036C113.857 30.5867 107.184 27.8261 100.226 27.8287Z" fill="#4A7D40"/>
<path d="M90.1861 108.659C100.866 101.999 110.886 93.9987 118.466 83.9087C122.305 78.9115 125.289 73.3122 127.296 67.3387C127.726 65.8287 128.116 64.3387 128.526 62.7987C128.936 61.2587 129.036 59.6987 129.286 58.1487C129.536 56.5987 129.466 55.0187 129.556 53.4487C129.573 52.6647 129.549 51.8804 129.486 51.0987C129.454 50.3202 129.368 49.5449 129.226 48.7787C128.759 45.6792 127.765 42.6826 126.286 39.9187C124.782 37.1668 122.832 34.6832 120.516 32.5687C118.207 30.4563 115.561 28.746 112.686 27.5087C109.792 26.3136 106.721 25.6041 103.596 25.4087C97.3093 24.9914 91.0711 26.7576 85.9361 30.4087C80.7987 34.0455 77.0503 39.3208 75.3061 45.3687L75.0261 46.4287L74.7261 45.3687C73.0219 39.4109 69.3636 34.1993 64.3396 30.5719C59.3155 26.9444 53.2176 25.1118 47.0261 25.3687C40.8072 25.5995 34.8514 27.9374 30.1361 31.9987C25.4257 36.0325 22.1953 41.5222 20.9561 47.5987L20.6061 49.8887C20.5061 50.6487 20.5061 51.4187 20.4561 52.1887C20.4012 52.9577 20.4012 53.7297 20.4561 54.4987L20.5761 56.8187C20.6179 57.588 20.7148 58.3533 20.8661 59.1087L21.2261 61.3987C21.3578 62.1586 21.5348 62.91 21.7561 63.6487L22.3561 65.8887C24.2219 71.8044 27.0792 77.3602 30.8061 82.3187C38.1361 92.3187 47.8061 100.419 58.1461 107.259C47.8061 100.499 38.0261 92.4987 30.5961 82.4987C26.8282 77.5221 23.9306 71.9432 22.0261 65.9987L21.4161 63.7387C21.1903 62.9937 21.01 62.2356 20.8761 61.4687L20.5261 59.1687C20.3715 58.4034 20.2713 57.6282 20.2261 56.8487L20.0961 54.5187C20.0462 53.7395 20.0462 52.9579 20.0961 52.1787C20.1461 51.3987 20.1461 50.6187 20.2361 49.8387L20.5861 47.5187C21.8287 41.3332 25.0976 35.7383 29.8761 31.6187C34.6741 27.5103 40.7113 25.1297 47.0221 24.8577C53.3329 24.5858 59.5525 26.4382 64.6861 30.1187C69.8053 33.8239 73.5425 39.1305 75.3061 45.1987H74.7061C76.5103 39.0424 80.3539 33.6824 85.6061 29.9987C90.8491 26.2994 97.2036 24.513 103.606 24.9387C108.379 25.2658 112.992 26.7965 117.014 29.388C121.036 31.9795 124.336 35.5473 126.606 39.7587C128.109 42.5671 129.123 45.6104 129.606 48.7587C129.748 49.5417 129.834 50.3336 129.866 51.1287C129.929 51.917 129.953 52.708 129.936 53.4987C129.836 55.0787 129.786 56.6687 129.646 58.2387C129.506 59.8087 129.156 61.3687 128.866 62.9287C128.576 64.4887 128.056 65.9887 127.616 67.4987C125.583 73.484 122.576 79.0927 118.716 84.0987C111.026 94.1587 100.916 102.089 90.1861 108.659Z" fill="#55862D"/>
<path d="M75.0261 46.8387C73.3002 40.7343 69.4213 35.4618 64.1074 31.9971C58.7934 28.5324 52.4042 27.11 46.1223 27.9933C39.8404 28.8766 34.0912 32.0057 29.9387 36.8015C25.7862 41.5973 23.5117 47.7351 23.5361 54.0787C23.5361 77.5687 44.0761 95.2287 59.2061 105.079C58.5661 103.169 57.3861 100.579 56.8061 98.9587C54.1061 91.4287 53.1761 86.8887 53.4461 81.5287L53.6761 54.3687C53.6761 54.2287 53.7039 54.09 53.7578 53.9607C53.8117 53.8315 53.8906 53.7142 53.9901 53.6156C54.0896 53.5171 54.2077 53.4392 54.3374 53.3865C54.4672 53.3338 54.6061 53.3074 54.7461 53.3087C55.0326 53.3087 55.3073 53.4225 55.5098 53.625C55.7124 53.8276 55.8261 54.1023 55.8261 54.3887L56.4261 81.8987C57.1597 82.1496 57.9596 82.1247 58.6761 81.8287L59.1961 54.3487C59.2219 54.0815 59.3464 53.8335 59.5451 53.653C59.7438 53.4725 60.0027 53.3725 60.2711 53.3725C60.5396 53.3725 60.7985 53.4725 60.9972 53.653C61.1959 53.8335 61.3203 54.0815 61.3461 54.3487L61.7261 81.8187C62.5868 82.103 63.5192 82.0818 64.3661 81.7587L64.7061 54.3487C64.7319 54.0815 64.8563 53.8335 65.0551 53.653C65.2538 53.4725 65.5127 53.3725 65.7811 53.3725C66.0496 53.3725 66.3084 53.4725 66.5072 53.653C66.7059 53.8335 66.8303 54.0815 66.8561 54.3487L67.3361 81.7287C68.0891 81.9172 68.8744 81.9377 69.6361 81.7887L70.2161 54.3587C70.2161 54.0723 70.3299 53.7976 70.5325 53.595C70.735 53.3925 71.0097 53.2787 71.2961 53.2787C71.4362 53.2774 71.5751 53.3038 71.7049 53.3565C71.8346 53.4092 71.9527 53.4871 72.0522 53.5856C72.1516 53.6842 72.2306 53.8015 72.2845 53.9307C72.3384 54.06 72.3662 54.1987 72.3661 54.3387L72.6061 82.2687C72.8361 89.4987 72.8461 93.1987 70.2761 98.3587C69.0461 100.829 66.8561 105.659 66.8561 106.929V109.669C71.7461 112.409 75.0161 113.839 75.0161 113.839V46.8387H75.0261Z" fill="#5EB14E"/>
<path d="M17.8565 140.382C19.4339 140.751 20.6786 141.515 21.5905 142.674C22.5271 143.832 22.9953 145.175 22.9953 146.704C22.9953 148.946 22.2436 150.696 20.7402 151.953C19.2614 153.21 17.1294 153.839 14.3444 153.839H2.18123V127.701H14.0486C16.7104 127.701 18.7684 128.28 20.2226 129.439C21.6767 130.597 22.4038 132.248 22.4038 134.392C22.4038 135.97 21.9848 137.288 21.1468 138.348C20.3089 139.383 19.2121 140.061 17.8565 140.382ZM8.5031 138.385H12.6437C14.8373 138.385 15.9341 137.449 15.9341 135.576C15.9341 133.702 14.8126 132.766 12.5698 132.766H8.5031V138.385ZM13.0134 148.7C15.3549 148.7 16.5256 147.739 16.5256 145.816C16.5256 144.88 16.2175 144.153 15.6013 143.635C14.9852 143.093 14.1102 142.822 12.9765 142.822H8.5031V148.7H13.0134ZM42.1753 145.028C42.1753 145.447 42.1253 145.907 42.0254 146.406H30.427C30.487 147.665 30.8067 148.574 31.3861 149.133C31.9655 149.673 32.7048 149.943 33.6039 149.943C34.3631 149.943 34.9925 149.753 35.492 149.373C35.9915 148.994 36.3211 148.504 36.481 147.905H41.9056C41.6858 149.083 41.2063 150.142 40.467 151.081C39.7277 152.001 38.7887 152.73 37.6498 153.269C36.511 153.789 35.2422 154.049 33.8436 154.049C32.2053 154.049 30.7467 153.709 29.468 153.03C28.2093 152.33 27.2203 151.331 26.501 150.033C25.7817 148.734 25.4221 147.215 25.4221 145.477C25.4221 143.719 25.7717 142.2 26.471 140.922C27.1903 139.623 28.1893 138.634 29.468 137.955C30.7467 137.255 32.2053 136.906 33.8436 136.906C35.502 136.906 36.9605 137.245 38.2192 137.925C39.478 138.604 40.447 139.563 41.1263 140.802C41.8256 142.021 42.1753 143.429 42.1753 145.028ZM36.9905 144.248C37.0105 143.149 36.7108 142.33 36.0914 141.791C35.492 141.231 34.7427 140.952 33.8436 140.952C32.9046 140.952 32.1253 141.231 31.506 141.791C30.8866 142.35 30.5369 143.169 30.457 144.248H36.9905ZM55.7559 136.936C57.674 136.936 59.1925 137.575 60.3113 138.854C61.4502 140.132 62.0196 141.891 62.0196 144.128V153.839H56.8948V144.728C56.8948 143.609 56.5951 142.74 55.9957 142.12C55.4163 141.481 54.637 141.161 53.658 141.161C52.619 141.161 51.7899 141.491 51.1705 142.15C50.5711 142.81 50.2714 143.749 50.2714 144.968V153.839H45.1465V137.115H50.2714V140.172C50.7509 139.173 51.4602 138.384 52.3993 137.805C53.3583 137.225 54.4772 136.936 55.7559 136.936ZM73.9112 134.838C73.072 134.838 72.4626 135.018 72.083 135.377C71.7034 135.737 71.4936 136.316 71.4536 137.115H74.4806V141.431H71.4536V153.839H66.3288V141.431H64.3208V137.115H66.3288V136.936C66.3288 134.858 66.9282 133.259 68.127 132.14C69.3457 131.002 71.104 130.432 73.4017 130.432C73.8812 130.432 74.2408 130.442 74.4806 130.462V134.868L73.9112 134.838ZM82.1578 140.262C82.7972 139.243 83.6164 138.434 84.6154 137.835C85.6344 137.235 86.7333 136.936 87.9121 136.936V142.42H86.4436C85.0849 142.42 84.026 142.71 83.2667 143.289C82.5275 143.869 82.1578 144.848 82.1578 146.226V153.839H77.033V137.115H82.1578V140.262ZM106.99 137.115V153.839H101.835V150.812C101.356 151.791 100.636 152.57 99.6774 153.149C98.7383 153.729 97.6394 154.019 96.3807 154.019C94.4626 154.019 92.9342 153.379 91.7953 152.1C90.6764 150.822 90.117 149.063 90.117 146.826V137.115H95.2119V146.196C95.2119 147.335 95.5016 148.224 96.081 148.864C96.6804 149.483 97.4796 149.793 98.4786 149.793C99.5176 149.793 100.337 149.463 100.936 148.804C101.536 148.144 101.835 147.205 101.835 145.987V137.115H106.99ZM110.342 132.41C110.342 131.631 110.622 130.992 111.181 130.492C111.741 129.973 112.48 129.713 113.399 129.713C114.318 129.713 115.058 129.973 115.617 130.492C116.176 130.992 116.456 131.631 116.456 132.41C116.456 133.169 116.176 133.809 115.617 134.328C115.058 134.828 114.318 135.077 113.399 135.077C112.48 135.077 111.741 134.828 111.181 134.328C110.622 133.809 110.342 133.169 110.342 132.41ZM115.947 137.115V153.839H110.822V137.115H115.947ZM129.255 149.433V153.839H126.948C124.989 153.839 123.461 153.359 122.362 152.4C121.283 151.421 120.744 149.813 120.744 147.575V141.431H118.496V137.115H120.744V133.01H125.869V137.115H129.225V141.431H125.869V147.665C125.869 148.324 125.998 148.784 126.258 149.044C126.538 149.303 126.997 149.433 127.637 149.433H129.255ZM136.301 137.115L140.317 147.365L144.064 137.115H149.728L139.298 161.811H133.664L137.59 153.209L130.577 137.115H136.301Z" fill="#5EB14E"/>
</svg>
